<mxfile host="Electron" modified="2023-09-04T04:37:42.199Z" agent="Mozilla/5.0 (Windows NT 10.0; Win64; x64) AppleWebKit/537.36 (KHTML, like Gecko) draw.io/21.6.8 Chrome/114.0.5735.289 Electron/25.5.0 Safari/537.36" etag="Sj7Rg7EeRYNBZZ1TSSQq" version="21.6.8" type="device">
  <diagram name="Страница — 1" id="yRHojEWgPjDxTX8DEZwJ">
    <mxGraphModel dx="1418" dy="820" grid="1" gridSize="10" guides="1" tooltips="1" connect="1" arrows="1" fold="1" page="1" pageScale="1" pageWidth="827" pageHeight="1169" math="0" shadow="0">
      <root>
        <mxCell id="0" />
        <mxCell id="1" parent="0" />
        <mxCell id="8eN5RJChwi3l4GBF4wn_-1" value="&lt;h1&gt;Pattern Singleton&lt;/h1&gt;&lt;p&gt;Диаграмма классов паттерна &quot;Singleton&quot;&lt;/p&gt;" style="text;html=1;strokeColor=none;fillColor=none;spacing=5;spacingTop=-20;whiteSpace=wrap;overflow=hidden;rounded=0;" vertex="1" parent="1">
          <mxGeometry y="10" width="270" height="120" as="geometry" />
        </mxCell>
        <mxCell id="8eN5RJChwi3l4GBF4wn_-2" value="ProgramLogger" style="swimlane;fontStyle=0;childLayout=stackLayout;horizontal=1;startSize=26;fillColor=none;horizontalStack=0;resizeParent=1;resizeParentMax=0;resizeLast=0;collapsible=1;marginBottom=0;whiteSpace=wrap;html=1;" vertex="1" parent="1">
          <mxGeometry x="399" y="100" width="230" height="112" as="geometry" />
        </mxCell>
        <mxCell id="8eN5RJChwi3l4GBF4wn_-3" value="- programLogger: ProrgamLogger" style="text;strokeColor=none;fillColor=none;align=left;verticalAlign=top;spacingLeft=4;spacingRight=4;overflow=hidden;rotatable=0;points=[[0,0.5],[1,0.5]];portConstraint=eastwest;whiteSpace=wrap;html=1;" vertex="1" parent="8eN5RJChwi3l4GBF4wn_-2">
          <mxGeometry y="26" width="230" height="26" as="geometry" />
        </mxCell>
        <mxCell id="8eN5RJChwi3l4GBF4wn_-18" style="edgeStyle=orthogonalEdgeStyle;rounded=0;orthogonalLoop=1;jettySize=auto;html=1;entryX=0.5;entryY=0;entryDx=0;entryDy=0;exitX=1;exitY=0.5;exitDx=0;exitDy=0;" edge="1" parent="8eN5RJChwi3l4GBF4wn_-2" source="8eN5RJChwi3l4GBF4wn_-4" target="8eN5RJChwi3l4GBF4wn_-2">
          <mxGeometry relative="1" as="geometry">
            <Array as="points">
              <mxPoint x="280" y="65" />
              <mxPoint x="280" y="-40" />
              <mxPoint x="115" y="-40" />
            </Array>
          </mxGeometry>
        </mxCell>
        <mxCell id="8eN5RJChwi3l4GBF4wn_-4" value="- ProgramLogger():" style="text;strokeColor=none;fillColor=none;align=left;verticalAlign=top;spacingLeft=4;spacingRight=4;overflow=hidden;rotatable=0;points=[[0,0.5],[1,0.5]];portConstraint=eastwest;whiteSpace=wrap;html=1;" vertex="1" parent="8eN5RJChwi3l4GBF4wn_-2">
          <mxGeometry y="52" width="230" height="26" as="geometry" />
        </mxCell>
        <mxCell id="8eN5RJChwi3l4GBF4wn_-6" value="" style="line;strokeWidth=1;fillColor=none;align=left;verticalAlign=middle;spacingTop=-1;spacingLeft=3;spacingRight=3;rotatable=0;labelPosition=right;points=[];portConstraint=eastwest;strokeColor=inherit;" vertex="1" parent="8eN5RJChwi3l4GBF4wn_-2">
          <mxGeometry y="78" width="230" height="8" as="geometry" />
        </mxCell>
        <mxCell id="8eN5RJChwi3l4GBF4wn_-5" value="+ GetProgramLogger(): ProgramLogger" style="text;strokeColor=none;fillColor=none;align=left;verticalAlign=top;spacingLeft=4;spacingRight=4;overflow=hidden;rotatable=0;points=[[0,0.5],[1,0.5]];portConstraint=eastwest;whiteSpace=wrap;html=1;" vertex="1" parent="8eN5RJChwi3l4GBF4wn_-2">
          <mxGeometry y="86" width="230" height="26" as="geometry" />
        </mxCell>
        <mxCell id="8eN5RJChwi3l4GBF4wn_-17" style="edgeStyle=orthogonalEdgeStyle;rounded=0;orthogonalLoop=1;jettySize=auto;html=1;entryX=0;entryY=0.5;entryDx=0;entryDy=0;endArrow=open;endFill=0;exitX=0.5;exitY=0;exitDx=0;exitDy=0;" edge="1" parent="1" source="8eN5RJChwi3l4GBF4wn_-13" target="8eN5RJChwi3l4GBF4wn_-5">
          <mxGeometry relative="1" as="geometry" />
        </mxCell>
        <mxCell id="8eN5RJChwi3l4GBF4wn_-13" value="Classname" style="swimlane;fontStyle=0;childLayout=stackLayout;horizontal=1;startSize=26;fillColor=none;horizontalStack=0;resizeParent=1;resizeParentMax=0;resizeLast=0;collapsible=1;marginBottom=0;whiteSpace=wrap;html=1;" vertex="1" parent="1">
          <mxGeometry x="139" y="136" width="140" height="40" as="geometry" />
        </mxCell>
        <mxCell id="8eN5RJChwi3l4GBF4wn_-20" style="edgeStyle=orthogonalEdgeStyle;rounded=0;orthogonalLoop=1;jettySize=auto;html=1;entryX=1;entryY=0.5;entryDx=0;entryDy=0;endArrow=none;endFill=0;dashed=1;" edge="1" parent="1" source="8eN5RJChwi3l4GBF4wn_-19" target="8eN5RJChwi3l4GBF4wn_-5">
          <mxGeometry relative="1" as="geometry" />
        </mxCell>
        <mxCell id="8eN5RJChwi3l4GBF4wn_-19" value="GetProgramLogger() {&lt;br&gt;&lt;br&gt;&lt;blockquote style=&quot;margin: 0 0 0 40px; border: none; padding: 0px;&quot;&gt;&lt;/blockquote&gt;&lt;blockquote style=&quot;margin: 0 0 0 40px; border: none; padding: 0px;&quot;&gt;&lt;span style=&quot;background-color: initial;&quot;&gt;if (programLogger== null) {&lt;br&gt;&lt;/span&gt;&lt;span style=&quot;background-color: initial; white-space: pre;&quot;&gt;&#x9;&lt;/span&gt;&lt;span style=&quot;background-color: initial;&quot;&gt;programLogger = new ProgramLogger();&lt;br&gt;&lt;/span&gt;}&lt;/blockquote&gt;&lt;blockquote style=&quot;margin: 0 0 0 40px; border: none; padding: 0px;&quot;&gt;&lt;br&gt;&lt;/blockquote&gt;&lt;blockquote style=&quot;margin: 0 0 0 40px; border: none; padding: 0px;&quot;&gt;&lt;/blockquote&gt;&lt;span style=&quot;white-space: pre;&quot;&gt;&#x9;&lt;/span&gt;&amp;nbsp; &amp;nbsp; return programLogger&lt;br&gt;&lt;br&gt;}" style="shape=note;size=20;whiteSpace=wrap;html=1;align=left;" vertex="1" parent="1">
          <mxGeometry x="399" y="250" width="290" height="140" as="geometry" />
        </mxCell>
      </root>
    </mxGraphModel>
  </diagram>
</mxfile>
